<svg width="79" height="61" viewBox="0 0 79 61" fill="none" xmlns="http://www.w3.org/2000/svg">
<path d="M9.18605 0H79V60.3217L0 52.6667L9.18605 0Z" fill="#C37BB2"/>
<path fill-rule="evenodd" clip-rule="evenodd" d="M18.5152 17.4536V20.2094H26.6202C31.0779 20.2094 34.7252 20.2859 34.7252 20.3796C34.7252 20.4731 31.0687 25.3592 26.6 31.2375C22.1311 37.1158 18.4286 41.9997 18.3726 42.0905C18.3163 42.1814 23.2049 42.2559 29.2359 42.2559H40.2016V28.4768V14.6978H29.3584H18.5152V17.4536ZM45.0208 28.4768V42.2559H47.5399H50.059V39.4807V36.7055L52.1622 33.9538L54.2653 31.2024L57.118 35.5716C58.6871 37.9749 60.3024 40.4618 60.7077 41.0985L61.4444 42.2559H64.4045C66.0322 42.2559 67.3643 42.22 67.3643 42.1759C67.3643 42.1318 65.1464 38.7904 62.4356 34.7504C59.7248 30.7104 57.5069 27.2799 57.5069 27.1271C57.5069 26.9744 57.6171 26.7808 57.752 26.697C57.8867 26.613 59.8737 24.0029 62.1675 20.8968C64.4614 17.7904 66.4333 15.125 66.5494 14.9733C66.7179 14.7538 64.5534 14.6978 55.8907 14.6978H45.0208V28.4768Z" fill="#ECEAE5"/>
</svg>
